<svg id="svg" xmlns="http://www.w3.org/2000/svg" xmlns:xlink="http://www.w3.org/1999/xlink"
    width="400" height="400" viewBox="0, 0, 400,400" version="1.1">
    <g id="svgg">
        <path id="path0"
            d="M143.143 58.225 C 107.739 68.556,103.776 122.585,137.185 139.450 C 158.348 150.133,184.259 136.446,190.260 111.415 C 197.895 79.562,171.630 49.912,143.143 58.225 M237.429 58.225 C 202.025 68.556,198.062 122.585,231.470 139.450 C 252.634 150.133,278.545 136.446,284.545 111.415 C 292.181 79.562,265.916 49.912,237.429 58.225 M158.846 75.711 C 173.005 80.706,178.430 101.957,169.109 115.915 C 156.817 134.323,132.000 123.679,132.000 100.000 C 132.000 83.120,145.424 70.975,158.846 75.711 M253.132 75.711 C 267.291 80.706,272.715 101.957,263.394 115.915 C 251.089 134.343,226.286 123.705,226.286 100.000 C 226.286 83.120,239.710 70.975,253.132 75.711 M74.571 126.796 C 39.168 137.128,35.204 191.156,68.613 208.021 C 89.777 218.704,115.688 205.018,121.688 179.986 C 129.324 148.134,103.059 118.483,74.571 126.796 M306.000 126.796 C 270.596 137.128,266.633 191.156,300.042 208.021 C 321.205 218.704,347.116 205.018,353.117 179.986 C 360.752 148.134,334.487 118.483,306.000 126.796 M91.775 145.080 C 113.313 155.269,107.393 193.714,84.286 193.714 C 66.626 193.714,56.947 169.260,68.034 152.656 C 73.706 144.162,83.338 141.089,91.775 145.080 M321.704 144.282 C 341.377 151.223,341.377 185.920,321.704 192.861 C 308.276 197.598,294.857 185.457,294.857 168.571 C 294.857 151.692,308.281 139.546,321.704 144.282 M182.857 161.119 C 171.597 163.528,161.081 169.040,152.333 177.119 C 148.477 180.681,108.427 230.802,105.661 235.528 C 83.468 273.445,105.643 322.394,148.714 330.565 C 155.491 331.850,244.509 331.850,251.286 330.565 C 294.417 322.383,316.641 273.125,294.226 235.394 C 291.305 230.477,251.514 180.676,247.633 177.079 C 238.696 168.797,227.430 163.081,215.571 160.812 C 209.132 159.580,189.178 159.767,182.857 161.119 M213.016 187.187 C 217.263 188.265,223.570 191.387,227.024 194.119 C 231.399 197.582,270.568 246.696,272.912 251.660 C 284.312 275.803,268.890 302.489,241.972 305.198 C 231.452 306.257,155.904 305.577,151.714 304.386 C 128.247 297.715,116.866 273.344,127.091 251.660 C 129.143 247.307,168.319 197.876,172.229 194.705 C 182.069 186.725,198.947 183.614,213.016 187.187 "
            stroke="" fill="" fill-rule="evenodd"></path>
    </g>
</svg>
