<svg width="24" height="24" viewBox="0 0 24 24" fill="none" xmlns="http://www.w3.org/2000/svg">
    <g id="tree">
        <path id="Vector 3"
            d="M19.3584 10.1751L13.7894 3.01488C13.389 2.50014 12.611 2.50013 12.2106 3.01488L6.82897 9.93418C6.49159 10.368 6.80071 11 7.35025 11C7.85993 11 8.17749 11.5529 7.92067 11.9931L5.87726 15.4961C5.48838 16.1628 5.96925 17 6.74104 17H10C10.5523 17 11 17.4477 11 18V20C11 20.5523 11.4477 21 12 21H14C14.5523 21 15 20.5523 15 20V18C15 17.4477 15.4477 17 16 17H20.1315C20.9302 17 21.4066 16.1099 20.9635 15.4453L18.5297 11.7946C18.3033 11.455 18.5468 11 18.955 11C19.3803 11 19.6195 10.5108 19.3584 10.1751Z"
            stroke="" stroke-width="2" />
    </g>
</svg>
